<svg width="32" height="32" viewBox="0 0 24 24" fill="none" xmlns="http://www.w3.org/2000/svg">
<path d="M3 12C3 12 5 15 9 15C13 15 15 12 19 12C23 12 21 9 21 9" stroke="#8561db" stroke-width="2" stroke-linecap="round" stroke-linejoin="round"/>
<path d="M3 15C3 15 5 18 9 18C13 18 15 15 19 15C23 15 21 12 21 12" stroke="#8561db" stroke-width="2" stroke-linecap="round" stroke-linejoin="round"/>
<path d="M3 9C3 9 5 12 9 12C13 12 15 9 19 9C23 9 21 6 21 6" stroke="#8561db" stroke-width="2" stroke-linecap="round" stroke-linejoin="round"/>
</svg>
